<svg id="svg2" xmlns="http://www.w3.org/2000/svg" viewBox="0 0 300 300"><defs><style>.cls-1{fill:#34b23a;stroke:#cec8c8;stroke-miterlimit:10;stroke-width:5px;}.cls-2{font-size:64.67px;fill:snow;font-family:Courier, Courier;}</style></defs><title>Artboard 1</title><g id="g9131"><path id="path8038" class="cls-1" d="M200.64,241.28,224.05,127l52.89-26.53,5.93,81.17-41,81.24Z"/><path id="path8018" class="cls-1" d="M122.35,69.25l9.43-49.59L70.06,60.49,17.64,131.37l23.51,16.15Z"/><path id="path8889" class="cls-1" d="M122.33,69.26,223.75,127.1l53.18-26.65-57.46-59.8-87.61-21Z"/><path id="path8028" class="cls-1" d="M88,250.35l-4.32,25.17L44,206,17.7,131.44l23.45,16.12Z"/><path id="path8048" class="cls-1" d="M199.9,240.92l-112,10-4.19,24.67,86.83,4.82,71.38-17.53Z"/><path id="path8831" class="cls-1" d="M122.29,69.25l101.71,58L200.72,240.92,88.21,250.8,41.14,147.54Z"/></g><text class="cls-2" transform="translate(74.71 181.63)">I/O</text></svg>